# xmcd
#
# Track frame offsets:
#	150
#	21762
#	36767
#	62282
#	90352
#	116095
#	138217
#	158322
#	181485
#	203612
#
# Disc length: 3061 seconds
#
# Revision: 1
# Processed by: cddbd v1.4PL0 Copyright (c) Steve Scherf et al.
# Submitted via: EasyCDDAExtractor 5.0.7
#
DISCID=6e0bf30a
DTITLE=Vu Khanh - Co Hang Nuoc
DYEAR=1900
DGENRE=Vietnamese
TTITLE0=Rung Khuc Tinh Sau
TTITLE1=Uoc Tham
TTITLE2=Truong Chi
TTITLE3=Tu Tram
TTITLE4=Co Hang Nuoc
TTITLE5=Co La Muon Thuo
TTITLE6=Bai Hoang
TTITLE7=Khi Em Thoang Qua Doi Toi
TTITLE8=Ben La
TTITLE9=Bai Khong Ten So 7
EXTD=
EXTT0=
EXTT1=
EXTT2=
EXTT3=
EXTT4=
EXTT5=
EXTT6=
EXTT7=
EXTT8=
EXTT9=
PLAYORDER=
